<?xml version="1.0" encoding="UTF-8"?>
<svg width="12px" height="17px" viewBox="0 0 12 17" version="1.1" xmlns="http://www.w3.org/2000/svg" xmlns:xlink="http://www.w3.org/1999/xlink">
    <!-- Generator: Sketch 3.8.3 (29802) - http://www.bohemiancoding.com/sketch -->
    <title>7</title>
    <desc>Created with Sketch.</desc>
    <defs></defs>
    <g id="Page-1" stroke="none" stroke-width="1" fill="none" fill-rule="evenodd">
        <path d="M0.56,0 L11.5926296,0 L11.5926296,2.30714286 C10.7480956,3.3109574 9.98034894,4.35118509 9.2893666,5.42785714 C8.59838426,6.50452919 7.99570315,7.64594635 7.48130518,8.85214286 C6.96690722,10.0583394 6.5484853,11.3333266 6.22602687,12.6771429 C5.90356845,14.0209591 5.68859939,15.4618971 5.58111324,17 L2.70203455,17 C2.79416553,15.6561838 3.01297332,14.328578 3.35846449,13.0171429 C3.70395566,11.7057077 4.14924871,10.4347681 4.69435701,9.20428571 C5.2394653,7.97380337 5.87285628,6.79191043 6.59454894,5.65857143 C7.31624161,4.52523243 8.09166572,3.46476684 8.92084453,2.47714286 L0.56,2.47714286 L0.56,0 Z" id="7" fill="#262624"></path>
    </g>
</svg>