<?xml version="1.0" encoding="UTF-8"?>
<svg width="13px" height="18px" viewBox="0 0 13 18" version="1.1" xmlns="http://www.w3.org/2000/svg" xmlns:xlink="http://www.w3.org/1999/xlink">
    <!-- Generator: Sketch 3.8.3 (29802) - http://www.bohemiancoding.com/sketch -->
    <title>2</title>
    <desc>Created with Sketch.</desc>
    <defs></defs>
    <g id="Page-1" stroke="none" stroke-width="1" fill="none" fill-rule="evenodd">
        <path d="M12.9109478,17.864 L0.936,17.864 C0.952701545,16.4830407 1.30342873,15.2767036 1.98819207,14.2449524 C2.67295541,13.2132012 3.60822789,12.3163848 4.79403758,11.5544762 C5.3618901,11.1576488 5.95478605,10.772732 6.57274322,10.3997143 C7.19070038,10.0266965 7.75854438,9.6259069 8.27629228,9.19733333 C8.79404017,8.76875976 9.21992317,8.30447869 9.55395407,7.80447619 C9.88798497,7.30447369 10.0633486,6.72908262 10.0800501,6.07828571 C10.0800501,5.7766969 10.0424722,5.45527155 9.96731524,5.114 C9.89215829,4.77272845 9.74602196,4.45527131 9.52890188,4.16161905 C9.3117818,3.86796679 9.0111585,3.6219375 8.62702296,3.42352381 C8.24288743,3.22511012 7.7418486,3.12590476 7.12389144,3.12590476 C6.55603891,3.12590476 6.08422735,3.23304655 5.70844259,3.44733333 C5.33265783,3.66162012 5.03203453,3.95526798 4.80656367,4.32828571 C4.58109282,4.70130345 4.41407987,5.14177524 4.30551983,5.64971429 C4.19695979,6.15765333 4.13432994,6.7052669 4.11762839,7.29257143 L1.2616785,7.29257143 C1.2616785,6.3719319 1.39111353,5.51876583 1.64998747,4.73304762 C1.90886142,3.9473294 2.29716651,3.26876476 2.81491441,2.69733333 C3.3326623,2.1259019 3.96313616,1.67749369 4.70635491,1.35209524 C5.44957365,1.02669679 6.31386564,0.864 7.29925678,0.864 C8.36815566,0.864 9.26167491,1.030665 9.97984134,1.364 C10.6980078,1.697335 11.2783777,2.11796571 11.7209687,2.62590476 C12.1635596,3.13384381 12.4767089,3.6854256 12.6604259,4.28066667 C12.8441429,4.87590774 12.936,5.44336238 12.936,5.98304762 C12.936,6.64971762 12.8274416,7.25288619 12.6103215,7.79257143 C12.3932014,8.33225667 12.1009288,8.82828345 11.7334948,9.28066667 C11.3660608,9.73304988 10.9485284,10.1497124 10.4808852,10.5306667 C10.0132419,10.911621 9.52890438,11.2687602 9.02785804,11.6020952 C8.52681169,11.9354302 8.02577286,12.2528874 7.52472651,12.5544762 C7.02368017,12.856065 6.56021925,13.1576493 6.13432985,13.4592381 C5.70844046,13.7608269 5.33683666,14.0743158 5.01950731,14.3997143 C4.70217795,14.7251127 4.48506113,15.0703474 4.36815031,15.4354286 L12.9109478,15.4354286 L12.9109478,17.864 Z" id="2" fill="#417505"></path>
    </g>
</svg>