<?xml version="1.0" encoding="UTF-8"?>
<svg width="13px" height="18px" viewBox="0 0 13 18" version="1.1" xmlns="http://www.w3.org/2000/svg" xmlns:xlink="http://www.w3.org/1999/xlink">
    <!-- Generator: Sketch 3.8.3 (29802) - http://www.bohemiancoding.com/sketch -->
    <title>6</title>
    <desc>Created with Sketch.</desc>
    <defs></defs>
    <g id="Page-1" stroke="none" stroke-width="1" fill="none" fill-rule="evenodd">
        <path d="M9.11485057,5.32416484 C9.05354759,4.65474757 8.81983345,4.11377313 8.41370115,3.70122527 C8.00756885,3.28867742 7.45968161,3.08240659 6.77002299,3.08240659 C6.29492483,3.08240659 5.88496724,3.17192035 5.54013793,3.35095055 C5.19530862,3.52998075 4.90412379,3.7673868 4.66657471,4.06317582 C4.42902563,4.35896485 4.23745667,4.69756036 4.09186207,5.07897253 C3.94626747,5.46038469 3.82749471,5.86125065 3.73554023,6.28158242 C3.64358575,6.70191419 3.5784523,7.11834775 3.54013793,7.5308956 C3.50182356,7.94344345 3.46734115,8.3287418 3.43668966,8.6868022 L3.48266667,8.73350549 C3.83515885,8.07965607 4.32174402,7.59316826 4.94243678,7.27402747 C5.56312954,6.95488668 6.23362092,6.79531868 6.95393103,6.79531868 C7.75086989,6.79531868 8.46350644,6.93542717 9.09186207,7.21564835 C9.7202177,7.49586953 10.2527794,7.88116788 10.6895632,8.37155495 C11.126347,8.86194201 11.459677,9.44183548 11.6895632,10.1112527 C11.9194494,10.78067 12.0343908,11.5045639 12.0343908,12.282956 C12.0343908,13.0769161 11.9079553,13.8124856 11.6550805,14.4896868 C11.4022056,15.166888 11.0382246,15.7584572 10.5631264,16.2644121 C10.0880283,16.770367 9.52098414,17.1634491 8.86197701,17.4436703 C8.20296989,17.7238915 7.47500782,17.864 6.67806897,17.864 C5.49798644,17.864 4.52864747,17.6421616 3.77002299,17.198478 C3.01139851,16.7547945 2.41370333,16.1476577 1.97691954,15.3770495 C1.54013575,14.6064412 1.23745678,13.7035198 1.06887356,12.6682582 C0.900290345,11.6329967 0.816,10.5160206 0.816,9.3172967 C0.816,8.33652257 0.919447241,7.34797934 1.12634483,6.35163736 C1.33324241,5.35529538 1.67423517,4.44848211 2.14933333,3.63117033 C2.62443149,2.81385855 3.24894632,2.14834323 4.02289655,1.6346044 C4.79684678,1.12086556 5.75086023,0.864 6.88496552,0.864 C7.5286469,0.864 8.13400483,0.972973269 8.70105747,1.19092308 C9.26811011,1.40887288 9.7700208,1.71244128 10.2068046,2.10163736 C10.6435884,2.49083345 10.9999067,2.95786174 11.2757701,3.50273626 C11.5516336,4.04761078 11.7048887,4.65474757 11.7355402,5.32416484 L9.11485057,5.32416484 Z M6.58611494,15.6455934 C7.0612131,15.6455934 7.47500207,15.5482958 7.82749425,15.3536978 C8.17998644,15.1590998 8.47500264,14.9061261 8.71255172,14.5947692 C8.9501008,14.2834124 9.12634425,13.9214654 9.24128736,13.5089176 C9.35623046,13.0963697 9.41370115,12.6721524 9.41370115,12.2362527 C9.41370115,11.8003531 9.35623046,11.3800277 9.24128736,10.9752637 C9.12634425,10.5704998 8.9501008,10.2163367 8.71255172,9.91276374 C8.47500264,9.60919079 8.17998644,9.36400093 7.82749425,9.17718681 C7.47500207,8.99037269 7.0612131,8.89696703 6.58611494,8.89696703 C6.11101678,8.89696703 5.69339644,8.98648079 5.33324138,9.16551099 C4.97308632,9.34454119 4.67040736,9.58583914 4.4251954,9.88941209 C4.17998345,10.192985 3.99607724,10.5471482 3.87347126,10.9519121 C3.75086529,11.356676 3.68956322,11.7847853 3.68956322,12.2362527 C3.68956322,12.6877202 3.75086529,13.1158295 3.87347126,13.5205934 C3.99607724,13.9253573 4.17998345,14.2873043 4.4251954,14.6064451 C4.67040736,14.9255858 4.97308632,15.1785595 5.33324138,15.3653736 C5.69339644,15.5521877 6.11101678,15.6455934 6.58611494,15.6455934 L6.58611494,15.6455934 Z" id="6" fill="#50E3C2"></path>
    </g>
</svg>