<?xml version="1.0" encoding="UTF-8"?>
<svg width="54px" height="91px" viewBox="0 0 54 91" version="1.1" xmlns="http://www.w3.org/2000/svg" xmlns:xlink="http://www.w3.org/1999/xlink">
    <!-- Generator: Sketch 3.8.3 (29802) - http://www.bohemiancoding.com/sketch -->
    <title>Group 7</title>
    <desc>Created with Sketch.</desc>
    <defs></defs>
    <g id="Page-1" stroke="none" stroke-width="1" fill="none" fill-rule="evenodd">
        <g id="LCD-digits">
            <g id="svg2">
                <g id="Group-7">
                    <path d="M2.698,89.58 C3.341,88.88 5.408,86.69 7.29,84.71 L10.713,81.12 L43.233,81.12 L46.653,84.71 C48.533,86.69 50.603,88.88 51.243,89.58 L52.413,90.85 L1.529,90.85 L2.698,89.58 L2.698,89.58 Z" id="path3125" fill="#FF0000"></path>
                    <path d="M0.3588,70.65 L0.3588,51.171 L2.7058,48.943 L5.0538,46.716 L5.8298,47.419 C6.2568,47.806 7.4718,48.957 8.5308,49.976 L10.4568,51.828 L10.4518,65.73 L10.4478,79.64 L7.1738,83.06 C5.3728,84.94 3.1028,87.31 2.1288,88.31 L0.3588,90.14 L0.3588,70.65 L0.3588,70.65 Z" id="path3127" fill="#FF0000"></path>
                    <path d="M48.503,84.86 L43.493,79.64 L43.493,51.828 L45.413,49.976 C46.473,48.957 47.693,47.806 48.113,47.418 L48.893,46.714 L51.253,48.97 L53.603,51.227 L53.553,70.65 L53.503,90.08 L48.503,84.86 L48.503,84.86 Z" id="path3129" fill="#FF0000"></path>
                    <polygon id="path3131" fill="#FB0000" opacity="0.21635" points="8.697 48.36 5.996 45.75 8.667 43.226 11.338 40.702 42.603 40.702 45.283 43.226 47.953 45.75 45.243 48.36 42.543 50.969 11.398 50.969 8.697 48.36"></polygon>
                    <polygon id="path3133" fill="#FF0000" points="2.711 42.685 0.357 40.436 0.401 21.168 0.444 1.901 5.451 6.684 10.457 11.467 10.457 39.806 7.761 42.37 5.065 44.934 2.711 42.685"></polygon>
                    <path d="M46.173,42.347 L43.473,39.76 L43.483,25.62 L43.493,11.48 L46.953,8.174 C48.863,6.356 51.133,4.172 52.003,3.32 L53.583,1.772 L53.583,40.445 L51.223,42.69 L48.873,44.934 L46.173,42.347 L46.173,42.347 Z" id="path3135" fill="#FF0000"></path>
                    <path d="M6.291,5.745 L1.207,0.91 L14.033,0.866 C21.088,0.842 32.682,0.842 39.799,0.866 L52.733,0.91 L47.653,5.745 L42.573,10.58 L11.375,10.58 L6.291,5.745 L6.291,5.745 Z" id="path3137" fill="#FF0000"></path>
                </g>
            </g>
        </g>
    </g>
</svg>