<?xml version="1.0" encoding="UTF-8"?>
<svg width="54px" height="91px" viewBox="0 0 54 91" version="1.1" xmlns="http://www.w3.org/2000/svg" xmlns:xlink="http://www.w3.org/1999/xlink">
    <!-- Generator: Sketch 3.8.3 (29802) - http://www.bohemiancoding.com/sketch -->
    <title>Group 8</title>
    <desc>Created with Sketch.</desc>
    <defs></defs>
    <g id="Page-1" stroke="none" stroke-width="1" fill="none" fill-rule="evenodd">
        <g id="LCD-digits" transform="translate(-68.000000, 0.000000)">
            <g id="svg2">
                <g id="Group-8" transform="translate(68.000000, 0.000000)">
                    <path d="M2.963,89.58 C3.603,88.88 5.673,86.69 7.553,84.71 L10.983,81.12 L43.493,81.12 L46.923,84.71 C48.803,86.69 50.873,88.88 51.513,89.58 L52.683,90.85 L1.796,90.85 L2.966,89.58 L2.963,89.58 Z" id="path3139" fill="#FB0000" opacity="0.25"></path>
                    <path d="M0.623,70.65 L0.623,51.171 L2.973,48.943 L5.323,46.716 L6.093,47.419 C6.523,47.806 7.733,48.957 8.793,49.976 L10.723,51.828 L10.713,65.73 L10.713,79.64 L7.443,83.06 C5.633,84.94 3.363,87.31 2.393,88.31 L0.623,90.14 L0.623,70.65 L0.623,70.65 Z" id="path3141" fill="#FB0000" opacity="0.2"></path>
                    <path d="M48.76,84.86 L43.76,79.64 L43.75,65.73 L43.75,51.828 L45.68,49.976 C46.73,48.957 47.95,47.806 48.38,47.418 L49.16,46.714 L51.51,48.97 L53.86,51.227 L53.81,70.65 L53.76,90.08 L48.76,84.86 L48.76,84.86 Z" id="path3143" fill="#FF0000"></path>
                    <polygon id="path3145" fill="#FB0000" opacity="0.25" points="8.963 48.36 6.263 45.75 8.933 43.226 11.603 40.702 42.873 40.702 45.543 43.226 48.213 45.75 45.513 48.36 42.813 50.969 11.666 50.969 8.966 48.36"></polygon>
                    <polygon id="path3147" fill="#FB0000" opacity="0.2" points="2.973 42.685 0.623 40.436 0.663 21.168 0.713 1.901 5.713 6.684 10.723 11.467 10.723 39.806 8.023 42.37 5.333 44.934 2.973 42.685"></polygon>
                    <path d="M46.43,42.347 L43.74,39.76 L43.74,25.62 L43.75,11.48 L47.22,8.174 C49.12,6.356 51.39,4.172 52.26,3.32 L53.85,1.772 L53.85,40.445 L51.49,42.69 L49.13,44.934 L46.43,42.347 L46.43,42.347 Z" id="path3149" fill="#FF0000"></path>
                    <path d="M6.553,5.745 L1.473,0.91 L14.303,0.866 C21.353,0.842 32.943,0.842 40.063,0.866 L53.003,0.91 L47.923,5.745 L42.833,10.58 L11.646,10.58 L6.556,5.745 L6.553,5.745 Z" id="path3151" fill="#FB0000" opacity="0.25"></path>
                </g>
            </g>
        </g>
    </g>
</svg>