<?xml version="1.0" encoding="UTF-8"?>
<svg width="54px" height="91px" viewBox="0 0 54 91" version="1.1" xmlns="http://www.w3.org/2000/svg" xmlns:xlink="http://www.w3.org/1999/xlink">
    <!-- Generator: Sketch 3.8.3 (29802) - http://www.bohemiancoding.com/sketch -->
    <title>Group 9</title>
    <desc>Created with Sketch.</desc>
    <defs></defs>
    <g id="Page-1" stroke="none" stroke-width="1" fill="none" fill-rule="evenodd">
        <g id="LCD-digits" transform="translate(-137.000000, 0.000000)">
            <g id="svg2">
                <g id="Group-9" transform="translate(137.000000, 0.000000)">
                    <path d="M2.7,89.58 C3.343,88.88 5.41,86.69 7.292,84.71 L10.715,81.12 L43.235,81.12 L46.655,84.71 C48.535,86.69 50.605,88.88 51.245,89.58 L52.415,90.85 L1.531,90.85 L2.7,89.58 L2.7,89.58 Z" id="path3093" fill="#FF0000"></path>
                    <path d="M0.36,70.65 L0.36,51.171 L2.707,48.943 L5.055,46.716 L5.831,47.419 C6.258,47.806 7.473,48.957 8.532,49.976 L10.458,51.828 L10.453,65.73 L10.449,79.64 L7.175,83.06 C5.374,84.94 3.104,87.31 2.13,88.31 L0.36,90.14 L0.36,70.65 L0.36,70.65 Z" id="path3095" fill="#FF0000"></path>
                    <path d="M48.5,84.86 L43.49,79.64 L43.49,51.828 L45.41,49.976 C46.47,48.957 47.69,47.806 48.11,47.418 L48.89,46.714 L51.25,48.97 L53.6,51.227 L53.55,70.65 L53.5,90.08 L48.5,84.86 L48.5,84.86 Z" id="path3097" fill="#FB0000" opacity="0.25"></path>
                    <polygon id="path3099" fill="#FF0000" points="8.7 48.36 5.999 45.75 8.67 43.226 11.341 40.702 42.606 40.702 45.286 43.226 47.956 45.75 45.246 48.36 42.546 50.969 11.401 50.969 8.7 48.36"></polygon>
                    <polygon id="path3101" fill="#FB0000" opacity="0.25" points="2.71 42.685 0.356 40.436 0.4 21.168 0.443 1.901 5.45 6.684 10.456 11.467 10.456 39.806 7.76 42.37 5.064 44.934 2.71 42.685"></polygon>
                    <path d="M46.17,42.347 L43.47,39.76 L43.48,25.62 L43.49,11.48 L46.95,8.174 C48.86,6.356 51.13,4.172 52,3.32 L53.58,1.772 L53.58,40.445 L51.22,42.69 L48.87,44.934 L46.17,42.347 L46.17,42.347 Z" id="path3103" fill="#FF0000"></path>
                    <path d="M6.29,5.745 L1.206,0.91 L14.032,0.866 C21.087,0.842 32.681,0.842 39.798,0.866 L52.732,0.91 L47.652,5.745 L42.572,10.58 L11.374,10.58 L6.29,5.745 L6.29,5.745 Z" id="path3105" fill="#FF0000"></path>
                </g>
            </g>
        </g>
    </g>
</svg>