<?xml version="1.0" encoding="UTF-8"?>
<svg width="54px" height="91px" viewBox="0 0 54 91" version="1.1" xmlns="http://www.w3.org/2000/svg" xmlns:xlink="http://www.w3.org/1999/xlink">
    <!-- Generator: Sketch 3.8.3 (29802) - http://www.bohemiancoding.com/sketch -->
    <title>Group 16</title>
    <desc>Created with Sketch.</desc>
    <defs></defs>
    <g id="Page-1" stroke="none" stroke-width="1" fill="none" fill-rule="evenodd">
        <g id="LCD-digits" transform="translate(-614.000000, 0.000000)">
            <g id="svg2">
                <g id="Group-16" transform="translate(614.000000, 0.000000)">
                    <path d="M2.96,89.58 C3.6,88.88 5.67,86.69 7.55,84.71 L10.98,81.12 L43.49,81.12 L46.92,84.71 C48.8,86.69 50.87,88.88 51.51,89.58 L52.68,90.85 L1.79,90.85 L2.96,89.58 L2.96,89.58 Z" id="path2416" fill="#FF0000"></path>
                    <path d="M0.62,70.65 L0.62,51.171 L2.97,48.943 L5.32,46.716 L6.09,47.419 C6.52,47.806 7.73,48.957 8.79,49.976 L10.72,51.828 L10.71,65.73 L10.71,79.64 L7.44,83.06 C5.63,84.94 3.36,87.31 2.39,88.31 L0.62,90.14 L0.62,70.65 L0.62,70.65 Z" id="path2414" fill="#FB0000" opacity="0.25"></path>
                    <path d="M48.76,84.86 L43.76,79.64 L43.75,65.73 L43.75,51.828 L45.68,49.976 C46.73,48.957 47.95,47.806 48.38,47.418 L49.16,46.714 L51.51,48.97 L53.86,51.227 L53.81,70.65 L53.76,90.08 L48.76,84.86 L48.76,84.86 Z" id="path2412" fill="#FF0000"></path>
                    <polygon id="path2410" fill="#FF0000" points="8.96 48.36 6.26 45.75 8.93 43.226 11.6 40.702 42.87 40.702 45.54 43.226 48.21 45.75 45.51 48.36 42.81 50.969 11.66 50.969 8.96 48.36"></polygon>
                    <polygon id="path2408" fill="#FF0000" points="2.97 42.685 0.62 40.436 0.66 21.168 0.71 1.901 5.71 6.684 10.72 11.467 10.72 39.806 8.02 42.37 5.33 44.934 2.97 42.685"></polygon>
                    <path d="M46.43,42.347 L43.74,39.76 L43.74,25.62 L43.75,11.48 L47.22,8.174 C49.12,6.356 51.39,4.172 52.26,3.32 L53.85,1.772 L53.85,40.445 L51.49,42.69 L49.13,44.934 L46.43,42.347 L46.43,42.347 Z" id="path2406" fill="#FF0000"></path>
                    <path d="M6.55,5.745 L1.47,0.91 L14.3,0.866 C21.35,0.842 32.94,0.842 40.06,0.866 L53,0.91 L47.92,5.745 L42.83,10.58 L11.64,10.58 L6.55,5.745 L6.55,5.745 Z" id="path2618" fill="#FF0000"></path>
                </g>
            </g>
        </g>
    </g>
</svg>