<?xml version="1.0" encoding="UTF-8"?>
<svg width="42px" height="42px" viewBox="0 0 42 42" version="1.1" xmlns="http://www.w3.org/2000/svg" xmlns:xlink="http://www.w3.org/1999/xlink">
    <!-- Generator: Sketch 3.8.3 (29802) - http://www.bohemiancoding.com/sketch -->
    <title>Group 2</title>
    <desc>Created with Sketch.</desc>
    <defs></defs>
    <g id="Page-1" stroke="none" stroke-width="1" fill="none" fill-rule="evenodd">
        <g id="Group-2" transform="translate(1.000000, 1.000000)" stroke="#000000" stroke-width="2">
            <path d="M20,40 C31.045695,40 40,31.045695 40,20 C40,8.954305 31.045695,0 20,0 C8.954305,0 0,8.954305 0,20 C0,31.045695 8.954305,40 20,40 Z" id="Oval-1" fill="#FFF544"></path>
            <g id="Group-6" transform="translate(23.000000, 12.000000)" stroke-linecap="square">
                <path d="M0.6,0.6 L5.4,5.4" id="Line"></path>
                <path d="M0.6,0.6 L5.4,5.4" id="Line" transform="translate(3.000000, 3.000000) scale(-1, 1) translate(-3.000000, -3.000000) "></path>
            </g>
            <g id="Group-6" transform="translate(10.000000, 12.000000)" stroke-linecap="square">
                <path d="M0.6,0.6 L5.4,5.4" id="Line"></path>
                <path d="M0.6,0.6 L5.4,5.4" id="Line" transform="translate(3.000000, 3.000000) scale(-1, 1) translate(-3.000000, -3.000000) "></path>
            </g>
            <path d="M9,26 C9,26 18.3828125,40.3007812 30.6503906,26" id="Path-2" transform="translate(19.825195, 29.177951) scale(1, -1) translate(-19.825195, -29.177951) "></path>
        </g>
    </g>
</svg>