<?xml version="1.0" encoding="UTF-8"?>
<svg width="13px" height="18px" viewBox="0 0 13 18" version="1.1" xmlns="http://www.w3.org/2000/svg" xmlns:xlink="http://www.w3.org/1999/xlink">
    <!-- Generator: Sketch 3.8.3 (29802) - http://www.bohemiancoding.com/sketch -->
    <title>8</title>
    <desc>Created with Sketch.</desc>
    <defs></defs>
    <g id="Page-1" stroke="none" stroke-width="1" fill="none" fill-rule="evenodd">
        <path d="M6.38971429,2.96564835 C5.6887584,2.96564835 5.09447863,3.17970299 4.60685714,3.60781868 C4.11923566,4.03593438 3.87542857,4.65474687 3.87542857,5.46427473 C3.87542857,6.2426669 4.11161669,6.83812797 4.584,7.25067582 C5.05638331,7.66322367 5.65828206,7.86949451 6.38971429,7.86949451 C7.12114651,7.86949451 7.72304526,7.66322367 8.19542857,7.25067582 C8.66781189,6.83812797 8.904,6.2426669 8.904,5.46427473 C8.904,4.65474687 8.66019291,4.03593438 8.17257143,3.60781868 C7.68494994,3.17970299 7.09067017,2.96564835 6.38971429,2.96564835 L6.38971429,2.96564835 Z M6.38971429,17.864 C5.5820912,17.864 4.83162251,17.7472429 4.13828571,17.5137253 C3.44494891,17.2802076 2.84685966,16.9416121 2.344,16.4979286 C1.84114034,16.054245 1.44876331,15.5132706 1.16685714,14.874989 C0.884950971,14.2367074 0.744,13.5205974 0.744,12.7266374 C0.744,11.6991597 1.00685451,10.8351573 1.53257143,10.1346044 C2.05828834,9.43405144 2.77066217,8.96702315 3.66971429,8.73350549 L3.66971429,8.6868022 C2.93828206,8.40658102 2.37828766,7.97457984 1.98971429,7.39078571 C1.60114091,6.80699159 1.40685714,6.11812485 1.40685714,5.32416484 C1.40685714,3.92305893 1.83732903,2.82943433 2.69828571,2.04325824 C3.5592424,1.25708215 4.78970629,0.864 6.38971429,0.864 C7.98972229,0.864 9.22018617,1.25708215 10.0811429,2.04325824 C10.9420995,2.82943433 11.3725714,3.92305893 11.3725714,5.32416484 C11.3725714,6.11812485 11.1782877,6.80699159 10.7897143,7.39078571 C10.4011409,7.97457984 9.84114651,8.40658102 9.10971429,8.6868022 L9.10971429,8.73350549 C10.0087664,8.96702315 10.7211402,9.43405144 11.2468571,10.1346044 C11.7725741,10.8351573 12.0354286,11.6991597 12.0354286,12.7266374 C12.0354286,13.5205974 11.8944776,14.2367074 11.6125714,14.874989 C11.3306653,15.5132706 10.9382882,16.054245 10.4354286,16.4979286 C9.93256891,16.9416121 9.33447966,17.2802076 8.64114286,17.5137253 C7.94780606,17.7472429 7.19733737,17.864 6.38971429,17.864 L6.38971429,17.864 Z M6.38971429,15.7623516 C7.25829006,15.7623516 7.98209234,15.4977023 8.56114286,14.9683956 C9.14019337,14.4390889 9.42971429,13.6918437 9.42971429,12.7266374 C9.42971429,11.8237024 9.14019337,11.1192681 8.56114286,10.6133132 C7.98209234,10.1073583 7.25829006,9.85438462 6.38971429,9.85438462 C5.52113851,9.85438462 4.79733623,10.1073583 4.21828571,10.6133132 C3.6392352,11.1192681 3.34971429,11.8237024 3.34971429,12.7266374 C3.34971429,13.6918437 3.6392352,14.4390889 4.21828571,14.9683956 C4.79733623,15.4977023 5.52113851,15.7623516 6.38971429,15.7623516 L6.38971429,15.7623516 Z" id="8" fill="#6F6F69"></path>
    </g>
</svg>