<?xml version="1.0" encoding="UTF-8"?>
<svg width="13px" height="18px" viewBox="0 0 13 18" version="1.1" xmlns="http://www.w3.org/2000/svg" xmlns:xlink="http://www.w3.org/1999/xlink">
    <!-- Generator: Sketch 3.8.3 (29802) - http://www.bohemiancoding.com/sketch -->
    <title>5</title>
    <desc>Created with Sketch.</desc>
    <defs></defs>
    <g id="Page-1" stroke="none" stroke-width="1" fill="none" fill-rule="evenodd">
        <path d="M2.8668714,0.2 L11.2046833,0.2 L11.2046833,2.62857143 L4.82464491,2.62857143 L3.99547025,6.86666667 L4.04153551,6.91428571 C4.39470426,6.50158524 4.84383605,6.18809631 5.38894434,5.97380952 C5.93405263,5.75952274 6.47531401,5.65238095 7.01274472,5.65238095 C7.81121321,5.65238095 8.52521758,5.79126845 9.15477927,6.06904762 C9.78434096,6.34682679 10.3140861,6.73571179 10.7440307,7.23571429 C11.1739753,7.73571679 11.5002676,8.32698071 11.7229175,9.00952381 C11.9455673,9.6920669 12.0568906,10.4301548 12.0568906,11.2238095 C12.0568906,11.8904795 11.9532448,12.5769806 11.7459501,13.2833333 C11.5386554,13.9896861 11.2085243,14.6325368 10.755547,15.2119048 C10.3025697,15.7912727 9.722921,16.2674585 9.01658349,16.6404762 C8.31024599,17.0134939 7.46572468,17.2 6.48299424,17.2 C5.69988092,17.2 4.97436035,17.0928582 4.30641075,16.8785714 C3.63846115,16.6642846 3.05113497,16.3428593 2.54441459,15.9142857 C2.0376942,15.4857121 1.63462722,14.9579396 1.33520154,14.3309524 C1.03577585,13.7039651 0.870710326,12.9698455 0.84,12.1285714 L3.46571977,12.1285714 C3.54249559,13.0333379 3.84191678,13.7277754 4.36399232,14.2119048 C4.88606787,14.6960342 5.57703985,14.9380952 6.43692898,14.9380952 C6.98971486,14.9380952 7.45804031,14.8428581 7.84191939,14.652381 C8.22579846,14.4619038 8.53673585,14.2000017 8.77474088,13.8666667 C9.01274591,13.5333317 9.18165017,13.1444467 9.28145873,12.7 C9.38126729,12.2555533 9.43117083,11.7793676 9.43117083,11.2714286 C9.43117083,10.8111088 9.36975109,10.370637 9.24690979,9.95 C9.12406848,9.52936298 8.93980929,9.16031905 8.69412668,8.84285714 C8.44844407,8.52539524 8.12982921,8.27142952 7.73827255,8.08095238 C7.34671589,7.89047524 6.88990664,7.7952381 6.36783109,7.7952381 C5.81504522,7.7952381 5.29681624,7.90237988 4.8131286,8.11666667 C4.32944096,8.33095345 3.98011624,8.7317431 3.76514395,9.31904762 L1.13942418,9.31904762 L2.8668714,0.2 Z" id="5" fill="#800615"></path>
    </g>
</svg>