<?xml version="1.0" encoding="UTF-8"?>
<svg width="12px" height="17px" viewBox="0 0 12 17" version="1.1" xmlns="http://www.w3.org/2000/svg" xmlns:xlink="http://www.w3.org/1999/xlink">
    <!-- Generator: Sketch 3.8.3 (29802) - http://www.bohemiancoding.com/sketch -->
    <title>3</title>
    <desc>Created with Sketch.</desc>
    <defs></defs>
    <g id="Page-1" stroke="none" stroke-width="1" fill="none" fill-rule="evenodd">
        <path d="M4.50285714,7.0989011 C4.92952594,7.11446894 5.35618834,7.08333372 5.78285714,7.00549451 C6.20952594,6.92765529 6.59047451,6.7914387 6.92571429,6.59684066 C7.26095406,6.40224262 7.53142754,6.13370135 7.73714286,5.79120879 C7.94285817,5.44871624 8.04571429,5.02839077 8.04571429,4.53021978 C8.04571429,3.82966683 7.81333566,3.26923287 7.34857143,2.8489011 C6.8838072,2.42856933 6.28571794,2.21840659 5.55428571,2.21840659 C5.09714057,2.21840659 4.70095406,2.31181225 4.36571429,2.49862637 C4.03047451,2.68544049 3.75238206,2.93841416 3.53142857,3.25755495 C3.31047509,3.57669573 3.1466672,3.93475076 3.04,4.33173077 C2.9333328,4.72871078 2.88761897,5.13736054 2.90285714,5.55769231 L0.297142857,5.55769231 C0.3276192,4.76373229 0.472379657,4.02816273 0.731428571,3.35096154 C0.990477486,2.67376035 1.34475966,2.08608308 1.79428571,1.58791209 C2.24381177,1.0897411 2.78856823,0.700550852 3.42857143,0.42032967 C4.06857463,0.140108489 4.79237691,0 5.6,0 C6.22476503,0 6.83809223,0.0934056593 7.44,0.28021978 C8.04190777,0.467033901 8.58285474,0.739467074 9.06285714,1.09752747 C9.54285954,1.45558787 9.9276176,1.91094046 10.2171429,2.4635989 C10.5066681,3.01625734 10.6514286,3.65063745 10.6514286,4.36675824 C10.6514286,5.19185394 10.4685733,5.9118559 10.1028571,6.52678571 C9.73714103,7.14171553 9.16571817,7.58928431 8.38857143,7.86950549 L8.38857143,7.91620879 C9.30286171,8.10302291 10.0152355,8.56615931 10.5257143,9.30563187 C11.036193,10.0451044 11.2914286,10.9441339 11.2914286,12.0027473 C11.2914286,12.7811394 11.1390491,13.47779 10.8342857,14.0927198 C10.5295223,14.7076496 10.1180978,15.2291645 9.6,15.6572802 C9.08190217,16.0853959 8.48000343,16.4162076 7.79428571,16.6497253 C7.108568,16.8832429 6.38476571,17 5.62285714,17 C4.69332869,17 3.88190823,16.8637834 3.18857143,16.5913462 C2.49523463,16.3189089 1.9161928,15.9336105 1.45142857,15.4354396 C0.986664343,14.9372686 0.632382171,14.3379156 0.388571429,13.6373626 C0.144760686,12.9368097 0.0152381714,12.1584292 0,11.3021978 L2.60571429,11.3021978 C2.57523794,12.2985398 2.81523554,13.127515 3.32571429,13.7891484 C3.83619303,14.4507817 4.60189966,14.7815934 5.62285714,14.7815934 C6.49143291,14.7815934 7.21904469,14.5286197 7.80571429,14.0226648 C8.39238389,13.5167099 8.68571429,12.796708 8.68571429,11.8626374 C8.68571429,11.2243558 8.56381074,10.7184085 8.32,10.3447802 C8.07618926,9.97115198 7.75619246,9.6870431 7.36,9.49244505 C6.96380754,9.29784701 6.51809771,9.17719804 6.02285714,9.13049451 C5.52761657,9.08379098 5.02095497,9.06822337 4.50285714,9.08379121 L4.50285714,7.0989011 Z" id="3" fill="#F53929"></path>
    </g>
</svg>